{"title":"Tom.A.La.Ferme.2013.FRENCH.720p.BluRay.x264-ZEST.mkv","uid":11223696,"size":4694861675,"categoryP":"video","categoryS":"hd___movies","magnet":"?xt=urn:btih:97a1b7ed0e00e2ec209e725a398bbea188651882&amp;dn=Tom.A.La.Ferme.2013.FRENCH.720p.BluRay.x264-ZEST.mkv&amp;tr=udp%3A%2F%2Ftracker.openbittorrent.com%3A80&amp;tr=udp%3A%2F%2Fopen.demonii.com%3A1337&amp;tr=udp%3A%2F%2Ftracker.coppersurfer.tk%3A6969&amp;tr=udp%3A%2F%2Fexodus.desync.com%3A6969","seeders":5,"leechers":2,"uploader":"rpessoa","files":1,"time":1413415560,"description":"A grieving man meets his lover's family, who were not aware of their son's sexual orientation.\n &lt;a href=&quot;\nhttp://www.imdb.com/title/tt2427892/&quot; rel=&quot;nofollow&quot; target=&quot;_NEW&quot;&gt;\nhttp://www.imdb.com/title/tt2427892/&lt;/a&gt;\n\nGeneral\nUnique ID : 213514417576732928382563432121498572887 (0xA0A1618BA318E1EFB746715AE82F9857)\nComplete name : Tom.A.La.Ferme.2013.FRENCH.720p.BluRay.x264-ZEST.mkv\nFormat : Matroska\nFormat version : Version 4 / Version 2\nFile size : 4.37 GiB\nDuration : 1h 42mn\nOverall bit rate : 6 083 Kbps\nEncoded date : UTC 2014-10-02 07:40:58\nWriting application : mkvmerge v7.2.0 ('On Every Street') 64bit built on Sep 13 2014 15:52:10\nWriting library : libebml v1.3.0 + libmatroska v1.4.1\nDURATION : 01:42:54.422000000\nNUMBER_OF_FRAMES : 578852\nNUMBER_OF_BYTES : 1164650224\n_STATISTICS_WRITING_APP : mkvmerge v7.2.0 ('On Every Street') 64bit built on Sep 13 2014 15:52:10\n_STATISTICS_WRITING_DATE_UTC : 2014-10-02 07:40:58\n_STATISTICS_TAGS : BPS DURATION NUMBER_OF_FRAMES NUMBER_OF_BYTES\n\nVideo\nID : 1\nFormat : AVC\nFormat/Info : Advanced Video Codec\nFormat profile : &lt;a class=&quot;__cf_email__&quot; href=&quot;/cdn-cgi/l/email-protection&quot; data-cfemail=&quot;eda5848a85ada1d9c3dc&quot;&gt;[email&amp;#160;protected]&lt;/a&gt;&lt;script cf-hash='f9e31' type=&quot;text/javascript&quot;&gt;\n/* &lt;![CDATA[ */!function(){try{var t=&quot;currentScript&quot;in document?document.currentScript:function(){for(var t=document.getElementsByTagName(&quot;script&quot;),e=t.length;e--;)if(t[e].getAttribute(&quot;cf-hash&quot;))return t[e]}();if(t&amp;&amp;t.previousSibling){var e,r,n,i,c=t.previousSibling,a=c.getAttribute(&quot;data-cfemail&quot;);if(a){for(e=&quot;&quot;,r=parseInt(a.substr(0,2),16),n=2;a.length-n;n+=2)i=parseInt(a.substr(n,2),16)^r,e+=String.fromCharCode(i);e=document.createTextNode(e),c.parentNode.replaceChild(e,c)}}}catch(u){}}();/* ]]&gt; */&lt;/script&gt;\nFormat settings, CABAC : Yes\nFormat settings, ReFrames : 5 frames\nCodec ID : V_MPEG4/ISO/AVC\nDuration : 1h 42mn\nBit rate : 4 574 Kbps\nWidth : 1 280 pixels\nHeight : 688 pixels\nDisplay aspect ratio : 1.85:1\nFrame rate mode : Constant\nFrame rate : 24.000 fps\nColor space : YUV\nChroma subsampling : 4:2:0\nBit depth : 8 bits\nScan type : Progressive\nBits/(Pixel*Frame) : 0.216\nStream size : 3.20 GiB (73%)\nTitle : ZEST - tom a la ferme 720 - 720p\nWriting library : x264 core 142 r2479 dd79a61\nEncoding settings : cabac=1 / ref=5 / deblock=1:0:0 / analyse=0x3:0x133 / me=umh / subme=7 / psy=1 / psy_rd=1.00:0.00 / mixed_ref=1 / me_range=16 / chroma_me=1 / trellis=1 / 8x8dct=1 / cqm=0 / deadzone=21,11 / fast_pskip=0 / chroma_qp_offset=-2 / threads=6 / lookahead_threads=1 / sliced_threads=0 / nr=0 / decimate=1 / interlaced=0 / bluray_compat=0 / constrained_intra=0 / bframes=3 / b_pyramid=2 / b_adapt=1 / b_bias=0 / direct=1 / weightb=1 / open_gop=0 / weightp=2 / keyint=240 / keyint_min=24 / scenecut=40 / intra_refresh=0 / rc_lookahead=40 / rc=2pass / mbtree=1 / bitrate=4574 / ratetol=1.0 / qcomp=0.60 / qpmin=0 / qpmax=69 / qpstep=4 / cplxblur=20.0 / qblur=0.5 / ip_ratio=1.40 / aq=1:1.00\nLanguage : English\nDefault : Yes\nForced : No\n\nAudio\nID : 2\nFormat : DTS\nFormat/Info : Digital Theater Systems\nMode : 16\nFormat settings, Endianness : Big\nCodec ID : A_DTS\nDuration : 1h 42mn\nBit rate mode : Constant\nBit rate : 1 509 Kbps\nChannel(s) : 6 channels\nChannel positions : Front: L C R, Side: L R, LFE\nSampling rate : 48.0 KHz\nBit depth : 24 bits\nCompression mode : Lossy\nStream size : 1.08 GiB (25%)\nTitle : FR-DTS 1509Kbps\nLanguage : French\nDefault : Yes\nForced : No\n\nMenu\n00:00:00.000 : en:00:00:00.000\n00:08:57.042 : en:00:08:57.042\n00:17:46.042 : en:00:17:46.042\n00:26:39.833 : en:00:26:39.833\n00:35:01.208 : en:00:35:01.208\n00:47:00.750 : en:00:47:00.750\n00:55:44.167 : en:00:55:44.167\n01:02:30.583 : en:01:02:30.583\n01:10:57.375 : en:01:10:57.375\n01:19:37.458 : en:01:19:37.458\n01:28:58.583 : en:01:28:58.583\n01:38:48.542 : en:01:38:48.542","torrent":{"xt":"urn:btih:97a1b7ed0e00e2ec209e725a398bbea188651882","amp;dn":"Tom.A.La.Ferme.2013.FRENCH.720p.BluRay.x264-ZEST.mkv","amp;tr":["udp%3A%2F%2Ftracker.openbittorrent.com%3A80","udp%3A%2F%2Fopen.demonii.com%3A1337","udp%3A%2F%2Ftracker.coppersurfer.tk%3A6969","udp%3A%2F%2Fexodus.desync.com%3A6969"],"infoHash":"97a1b7ed0e00e2ec209e725a398bbea188651882","infoHashBuffer":{"type":"Buffer","data":[151,161,183,237,14,0,226,236,32,158,114,90,57,139,190,161,136,101,24,130]},"announce":[],"urlList":[]}}